{
    "asset" : {
        "generator" : "Khronos glTF Blender I/O v1.6.16",
        "version" : "2.0"
    },
    "scene" : 0,
    "scenes" : [
        {
            "extras" : {
                "max_order" : 50,
                "ray_count" : 100000,
                "glTF2ExportSettings" : {
                    "export_all_influences" : 0,
                    "export_animations" : 0,
                    "export_apply" : 1,
                    "export_cameras" : 0,
                    "export_colors" : 1,
                    "export_copyright" : "",
                    "export_current_frame" : 0,
                    "export_def_bones" : 0,
                    "export_displacement" : 0,
                    "export_draco_color_quantization" : 10,
                    "export_draco_generic_quantization" : 12,
                    "export_draco_mesh_compression_enable" : 0,
                    "export_draco_mesh_compression_level" : 6,
                    "export_draco_normal_quantization" : 10,
                    "export_draco_position_quantization" : 14,
                    "export_draco_texcoord_quantization" : 12,
                    "export_extras" : 1,
                    "export_force_sampling" : 1,
                    "export_format" : "GLTF_EMBEDDED",
                    "export_frame_range" : 1,
                    "export_frame_step" : 1,
                    "export_image_format" : "AUTO",
                    "export_lights" : 0,
                    "export_materials" : "EXPORT",
                    "export_morph" : 0,
                    "export_morph_normal" : 1,
                    "export_morph_tangent" : 0,
                    "export_nla_strips" : 1,
                    "export_normals" : 1,
                    "export_selected" : 0,
                    "export_skins" : 0,
                    "export_tangents" : 0,
                    "export_texcoords" : 1,
                    "export_texture_dir" : "",
                    "export_yup" : 0,
                    "use_active_collection" : 0,
                    "use_mesh_edges" : 0,
                    "use_mesh_vertices" : 0,
                    "use_renderable" : 0,
                    "use_selection" : 0,
                    "use_visible" : 0
                }
            },
            "name" : "Scene",
            "nodes" : [
                0,
                1,
                2
            ]
        }
    ],
    "nodes" : [
        {
            "extras" : {
                "node_type" : "reflector",
                "active" : 1
            },
            "mesh" : 0,
            "name" : "cyl",
            "translation" : [
                0,
                0,
                2
            ]
        },
        {
            "extras" : {
                "node_type" : "source",
                "active" : 1
            },
            "mesh" : 1,
            "name" : "source",
            "translation" : [
                -2,
                2,
                2
            ]
        },
        {
            "extras" : {
                "node_type" : "receiver",
                "active" : 1,
                "radius" : 0.25
            },
            "mesh" : 2,
            "name" : "receiver",
            "translation" : [
                1,
                0,
                1
            ]
        }
    ],
    "materials" : [
        {
            "doubleSided" : true,
            "extras" : {
                "absorption" : [
                    [
                        63,
                        0.09598492629929062
                    ],
                    [
                        125,
                        0.13687180452850645
                    ],
                    [
                        250,
                        0.18977446348273183
                    ],
                    [
                        500,
                        0.227717065788987295
                    ],
                    [
                        1000,
                        0.29536397230798383
                    ],
                    [
                        2000,
                        0.34381693356590702
                    ],
                    [
                        4000,
                        0.35955168916158025
                    ],
                    [
                        8000,
                        0.32279683090054323
                    ],
                    [
                        16000,
                        0.32279683090054323
                    ]
                ]
            },
            "name" : "floor",
            "pbrMetallicRoughness" : {
                "baseColorFactor" : [
                    0.800000011920929,
                    0.800000011920929,
                    0.800000011920929,
                    1
                ],
                "metallicFactor" : 0,
                "roughnessFactor" : 0.5
            }
        },
        {
            "doubleSided" : true,
            "extras" : {
                "absorption" : [
                    [
                        63,
                        0.04705953709084234
                    ],
                    [
                        125,
                        0.059232581659820657
                    ],
                    [
                        250,
                        0.14196070658239688
                    ],
                    [
                        500,
                        0.18882260838766812
                    ],
                    [
                        1000,
                        0.29268644249902278
                    ],
                    [
                        2000,
                        0.30966738321027849
                    ],
                    [
                        4000,
                        0.33203001106057166
                    ],
                    [
                        8000,
                        0.314284071104813046
                    ],
                    [
                        16000,
                        0.32279683090054323
                    ]
                ]
            },
            "name" : "ceil",
            "pbrMetallicRoughness" : {
                "baseColorFactor" : [
                    0.800000011920929,
                    0.800000011920929,
                    0.800000011920929,
                    1
                ],
                "metallicFactor" : 0,
                "roughnessFactor" : 0.5
            }
        },
        {
            "doubleSided" : true,
            "extras" : {
                "absorption" : [
                    [
                        63,
                        0.029973796601654557
                    ],
                    [
                        125,
                        0.021714706296733312
                    ],
                    [
                        250,
                        0.01609954991402629
                    ],
                    [
                        500,
                        0.0400099973402422
                    ],
                    [
                        1000,
                        0.10912145373330715
                    ],
                    [
                        2000,
                        0.154997554580906854
                    ],
                    [
                        4000,
                        0.18670207559002988
                    ],
                    [
                        8000,
                        0.19636503335668618
                    ],
                    [
                        16000,
                        0.22279683090054323
                    ]
                ]
            },
            "name" : "walls",
            "pbrMetallicRoughness" : {
                "baseColorFactor" : [
                    0.800000011920929,
                    0.800000011920929,
                    0.800000011920929,
                    1
                ],
                "metallicFactor" : 0,
                "roughnessFactor" : 0.5
            }
        }
    ],
    "meshes" : [
        {
            "name" : "Cylinder",
            "primitives" : [
                {
                    "attributes" : {
                        "POSITION" : 0,
                        "NORMAL" : 1,
                        "TEXCOORD_0" : 2
                    },
                    "indices" : 3,
                    "material" : 0
                },
                {
                    "attributes" : {
                        "POSITION" : 4,
                        "NORMAL" : 5,
                        "TEXCOORD_0" : 6
                    },
                    "indices" : 7,
                    "material" : 1
                },
                {
                    "attributes" : {
                        "POSITION" : 8,
                        "NORMAL" : 9,
                        "TEXCOORD_0" : 10
                    },
                    "indices" : 11,
                    "material" : 2
                }
            ]
        },
        {
            "name" : "source",
            "primitives" : [
                {
                    "attributes" : {
                        "POSITION" : 12,
                        "NORMAL" : 13,
                        "TEXCOORD_0" : 14
                    },
                    "indices" : 15
                }
            ]
        },
        {
            "name" : "receiver",
            "primitives" : [
                {
                    "attributes" : {
                        "POSITION" : 16,
                        "NORMAL" : 17,
                        "TEXCOORD_0" : 18
                    },
                    "indices" : 15
                }
            ]
        }
    ],
    "accessors" : [
        {
            "bufferView" : 0,
            "componentType" : 5126,
            "count" : 32,
            "max" : [
                4,
                4,
                -2
            ],
            "min" : [
                -4,
                -4,
                -2
            ],
            "type" : "VEC3"
        },
        {
            "bufferView" : 1,
            "componentType" : 5126,
            "count" : 32,
            "type" : "VEC3"
        },
        {
            "bufferView" : 2,
            "componentType" : 5126,
            "count" : 32,
            "type" : "VEC2"
        },
        {
            "bufferView" : 3,
            "componentType" : 5123,
            "count" : 90,
            "type" : "SCALAR"
        },
        {
            "bufferView" : 4,
            "componentType" : 5126,
            "count" : 32,
            "max" : [
                4,
                4,
                2
            ],
            "min" : [
                -4,
                -4,
                2
            ],
            "type" : "VEC3"
        },
        {
            "bufferView" : 5,
            "componentType" : 5126,
            "count" : 32,
            "type" : "VEC3"
        },
        {
            "bufferView" : 6,
            "componentType" : 5126,
            "count" : 32,
            "type" : "VEC2"
        },
        {
            "bufferView" : 7,
            "componentType" : 5123,
            "count" : 90,
            "type" : "SCALAR"
        },
        {
            "bufferView" : 8,
            "componentType" : 5126,
            "count" : 128,
            "max" : [
                4,
                4,
                2
            ],
            "min" : [
                -4,
                -4,
                -2
            ],
            "type" : "VEC3"
        },
        {
            "bufferView" : 9,
            "componentType" : 5126,
            "count" : 128,
            "type" : "VEC3"
        },
        {
            "bufferView" : 10,
            "componentType" : 5126,
            "count" : 128,
            "type" : "VEC2"
        },
        {
            "bufferView" : 11,
            "componentType" : 5123,
            "count" : 192,
            "type" : "SCALAR"
        },
        {
            "bufferView" : 12,
            "componentType" : 5126,
            "count" : 240,
            "max" : [
                0.23776446282863617,
                0.2499999850988388,
                0.25
            ],
            "min" : [
                -0.23776446282863617,
                -0.2499999850988388,
                -0.25
            ],
            "type" : "VEC3"
        },
        {
            "bufferView" : 13,
            "componentType" : 5126,
            "count" : 240,
            "type" : "VEC3"
        },
        {
            "bufferView" : 14,
            "componentType" : 5126,
            "count" : 240,
            "type" : "VEC2"
        },
        {
            "bufferView" : 15,
            "componentType" : 5123,
            "count" : 240,
            "type" : "SCALAR"
        },
        {
            "bufferView" : 16,
            "componentType" : 5126,
            "count" : 240,
            "max" : [
                0.23776446282863617,
                0.2499999850988388,
                0.25
            ],
            "min" : [
                -0.23776446282863617,
                -0.2499999850988388,
                -0.25
            ],
            "type" : "VEC3"
        },
        {
            "bufferView" : 17,
            "componentType" : 5126,
            "count" : 240,
            "type" : "VEC3"
        },
        {
            "bufferView" : 18,
            "componentType" : 5126,
            "count" : 240,
            "type" : "VEC2"
        }
    ],
    "bufferViews" : [
        {
            "buffer" : 0,
            "byteLength" : 384,
            "byteOffset" : 0
        },
        {
            "buffer" : 0,
            "byteLength" : 384,
            "byteOffset" : 384
        },
        {
            "buffer" : 0,
            "byteLength" : 256,
            "byteOffset" : 768
        },
        {
            "buffer" : 0,
            "byteLength" : 180,
            "byteOffset" : 1024
        },
        {
            "buffer" : 0,
            "byteLength" : 384,
            "byteOffset" : 1204
        },
        {
            "buffer" : 0,
            "byteLength" : 384,
            "byteOffset" : 1588
        },
        {
            "buffer" : 0,
            "byteLength" : 256,
            "byteOffset" : 1972
        },
        {
            "buffer" : 0,
            "byteLength" : 180,
            "byteOffset" : 2228
        },
        {
            "buffer" : 0,
            "byteLength" : 1536,
            "byteOffset" : 2408
        },
        {
            "buffer" : 0,
            "byteLength" : 1536,
            "byteOffset" : 3944
        },
        {
            "buffer" : 0,
            "byteLength" : 1024,
            "byteOffset" : 5480
        },
        {
            "buffer" : 0,
            "byteLength" : 384,
            "byteOffset" : 6504
        },
        {
            "buffer" : 0,
            "byteLength" : 2880,
            "byteOffset" : 6888
        },
        {
            "buffer" : 0,
            "byteLength" : 2880,
            "byteOffset" : 9768
        },
        {
            "buffer" : 0,
            "byteLength" : 1920,
            "byteOffset" : 12648
        },
        {
            "buffer" : 0,
            "byteLength" : 480,
            "byteOffset" : 14568
        },
        {
            "buffer" : 0,
            "byteLength" : 2880,
            "byteOffset" : 15048
        },
        {
            "buffer" : 0,
            "byteLength" : 2880,
            "byteOffset" : 17928
        },
        {
            "buffer" : 0,
            "byteLength" : 1920,
            "byteOffset" : 20808
        }
    ],
    "buffers" : [
        {
            "byteLength" : 22728,
            "uri" : "data:application/octet-stream;base64,"
        }
    ]
}
