{
    "asset" : {
        "generator" : "Khronos glTF Blender I/O v1.6.16",
        "version" : "2.0"
    },
    "scene" : 0,
    "scenes" : [
        {
            "extras" : {
                "max_order" : 50,
                "ray_count" : 10000,
                "export_path" : "/Users/gregzanchelli/dev/raya/res/auditorium.gltf",
                "glTF2ExportSettings" : {
                    "export_all_influences" : 0,
                    "export_animations" : 0,
                    "export_apply" : 1,
                    "export_cameras" : 0,
                    "export_colors" : 1,
                    "export_copyright" : "",
                    "export_current_frame" : 0,
                    "export_def_bones" : 0,
                    "export_displacement" : 0,
                    "export_draco_color_quantization" : 10,
                    "export_draco_generic_quantization" : 12,
                    "export_draco_mesh_compression_enable" : 0,
                    "export_draco_mesh_compression_level" : 6,
                    "export_draco_normal_quantization" : 10,
                    "export_draco_position_quantization" : 14,
                    "export_draco_texcoord_quantization" : 12,
                    "export_extras" : 1,
                    "export_force_sampling" : 1,
                    "export_format" : "GLTF_EMBEDDED",
                    "export_frame_range" : 1,
                    "export_frame_step" : 1,
                    "export_image_format" : "AUTO",
                    "export_lights" : 0,
                    "export_materials" : "EXPORT",
                    "export_morph" : 0,
                    "export_morph_normal" : 1,
                    "export_morph_tangent" : 0,
                    "export_nla_strips" : 1,
                    "export_normals" : 1,
                    "export_selected" : 0,
                    "export_skins" : 0,
                    "export_tangents" : 0,
                    "export_texcoords" : 1,
                    "export_texture_dir" : "",
                    "export_yup" : 0,
                    "use_active_collection" : 0,
                    "use_mesh_edges" : 0,
                    "use_mesh_vertices" : 0,
                    "use_renderable" : 0,
                    "use_selection" : 0,
                    "use_visible" : 0
                }
            },
            "name" : "Scene",
            "nodes" : [
                0,
                1,
                2
            ]
        }
    ],
    "nodes" : [
        {
            "extras" : {
                "active" : 1,
                "node_type" : 1
            },
            "mesh" : 0,
            "name" : "Test_Auditorium"
        },
        {
            "extras" : {
                "node_type" : 2,
                "active" : 1
            },
            "mesh" : 1,
            "name" : "Sphere",
            "translation" : [
                1.8426496982574463,
                6.951814651489258,
                1.8608877658843994
            ]
        },
        {
            "extras" : {
                "node_type" : 3,
                "radius" : 0.25,
                "active" : 1
            },
            "mesh" : 2,
            "name" : "Sphere.001",
            "translation" : [
                19.741479873657227,
                6.666144371032715,
                3.1342504024505615
            ]
        }
    ],
    "materials" : [
        {
            "doubleSided" : true,
            "extras" : {
                "abs63" : 0.03999999910593033,
                "abs125" : 0.10000000149011612,
                "abs250" : 0.07000000029802322,
                "abs500" : 0.05999999865889549,
                "abs1000" : 0.05999999865889549,
                "abs2000" : 0.05999999865889549,
                "abs4000" : 0.05999999865889549,
                "abs8000" : 0.05999999865889549,
                "abs16000" : 0.05999999865889549
            },
            "name" : "WoodStageFloor",
            "pbrMetallicRoughness" : {
                "baseColorFactor" : [
                    0.800000011920929,
                    0.800000011920929,
                    0.800000011920929,
                    1
                ],
                "metallicFactor" : 0,
                "roughnessFactor" : 0.5
            }
        },
        {
            "doubleSided" : true,
            "extras" : {
                "abs63" : 0.004000000189989805,
                "abs125" : 0.05999999865889549,
                "abs250" : 0.12999999523162842,
                "abs500" : 0.23999999463558197,
                "abs1000" : 0.44999998807907104,
                "abs4000" : 0.6399999856948853,
                "abs2000" : 0.8199999928474426,
                "abs8000" : 0.6399999856948853,
                "abs16000" : 0.6399999856948853
            },
            "name" : "Tectum",
            "pbrMetallicRoughness" : {
                "baseColorFactor" : [
                    0.800000011920929,
                    0.800000011920929,
                    0.800000011920929,
                    1
                ],
                "metallicFactor" : 0,
                "roughnessFactor" : 0.5
            }
        },
        {
            "doubleSided" : true,
            "extras" : {
                "abs63" : 0.004000000189989805,
                "abs125" : 0.18000000715255737,
                "abs250" : 0.4000000059604645,
                "abs500" : 0.46000000834465027,
                "abs1000" : 0.46000000834465027,
                "abs2000" : 0.5099999904632568,
                "abs4000" : 0.46000000834465027,
                "abs8000" : 0.46000000834465027,
                "abs16000" : 0.46000000834465027
            },
            "name" : "Audience",
            "pbrMetallicRoughness" : {
                "baseColorFactor" : [
                    0.800000011920929,
                    0.800000011920929,
                    0.800000011920929,
                    1
                ],
                "metallicFactor" : 0,
                "roughnessFactor" : 0.5
            }
        },
        {
            "doubleSided" : true,
            "extras" : {
                "abs63" : 0.05000000074505806,
                "abs125" : 0.14000000059604645,
                "abs250" : 0.10000000149011612,
                "abs500" : 0.05999999865889549,
                "abs1000" : 0.05000000074505806,
                "abs2000" : 0.03999999910593033,
                "abs4000" : 0.029999999329447746,
                "abs8000" : 0.029999999329447746,
                "abs16000" : 0.03999999910593033
            },
            "name" : "Plaster",
            "pbrMetallicRoughness" : {
                "baseColorFactor" : [
                    0.800000011920929,
                    0.800000011920929,
                    0.800000011920929,
                    1
                ],
                "metallicFactor" : 0,
                "roughnessFactor" : 0.5
            }
        },
        {
            "doubleSided" : true,
            "extras" : {
                "abs63" : 0.029999999329447746,
                "abs125" : 0.10000000149011612,
                "abs250" : 0.05000000074505806,
                "abs500" : 0.05999999865889549,
                "abs1000" : 0.07000000029802322,
                "abs2000" : 0.09000000357627869,
                "abs4000" : 0.07999999821186066,
                "abs8000" : 0.07999999821186066,
                "abs16000" : 0.08500000089406967
            },
            "name" : "PaintedCMU",
            "pbrMetallicRoughness" : {
                "baseColorFactor" : [
                    0.800000011920929,
                    0.800000011920929,
                    0.800000011920929,
                    1
                ],
                "metallicFactor" : 0,
                "roughnessFactor" : 0.5
            }
        }
    ],
    "meshes" : [
        {
            "name" : "Test_Auditorium",
            "primitives" : [
                {
                    "attributes" : {
                        "POSITION" : 0,
                        "NORMAL" : 1
                    },
                    "indices" : 2,
                    "material" : 0
                },
                {
                    "attributes" : {
                        "POSITION" : 3,
                        "NORMAL" : 4
                    },
                    "indices" : 5,
                    "material" : 1
                },
                {
                    "attributes" : {
                        "POSITION" : 6,
                        "NORMAL" : 7
                    },
                    "indices" : 8,
                    "material" : 2
                },
                {
                    "attributes" : {
                        "POSITION" : 9,
                        "NORMAL" : 10
                    },
                    "indices" : 11,
                    "material" : 3
                },
                {
                    "attributes" : {
                        "POSITION" : 12,
                        "NORMAL" : 13
                    },
                    "indices" : 14,
                    "material" : 4
                }
            ]
        },
        {
            "name" : "Sphere",
            "primitives" : [
                {
                    "attributes" : {
                        "POSITION" : 15,
                        "NORMAL" : 16,
                        "TEXCOORD_0" : 17
                    },
                    "indices" : 18
                }
            ]
        },
        {
            "name" : "Sphere.001",
            "primitives" : [
                {
                    "attributes" : {
                        "POSITION" : 19,
                        "NORMAL" : 20,
                        "TEXCOORD_0" : 21
                    },
                    "indices" : 22
                }
            ]
        }
    ],
    "accessors" : [
        {
            "bufferView" : 0,
            "componentType" : 5126,
            "count" : 10,
            "max" : [
                3.6396543979644775,
                14.90719985961914,
                0
            ],
            "min" : [
                0,
                -1.3552000522613525,
                -0.6776000261306763
            ],
            "type" : "VEC3"
        },
        {
            "bufferView" : 1,
            "componentType" : 5126,
            "count" : 10,
            "type" : "VEC3"
        },
        {
            "bufferView" : 2,
            "componentType" : 5123,
            "count" : 18,
            "type" : "SCALAR"
        },
        {
            "bufferView" : 3,
            "componentType" : 5126,
            "count" : 16,
            "max" : [
                25.951091766357422,
                18.052879333496094,
                8.243200302124023
            ],
            "min" : [
                23.240692138671875,
                -4.500878810882568,
                0.5723999738693237
            ],
            "type" : "VEC3"
        },
        {
            "bufferView" : 4,
            "componentType" : 5126,
            "count" : 16,
            "type" : "VEC3"
        },
        {
            "bufferView" : 5,
            "componentType" : 5123,
            "count" : 24,
            "type" : "SCALAR"
        },
        {
            "bufferView" : 6,
            "componentType" : 5126,
            "count" : 13,
            "max" : [
                25.951091766357422,
                18.052879333496094,
                0.5723999738693237
            ],
            "min" : [
                3.6396543979644775,
                -4.500878810882568,
                -0.6776000261306763
            ],
            "type" : "VEC3"
        },
        {
            "bufferView" : 7,
            "componentType" : 5126,
            "count" : 13,
            "type" : "VEC3"
        },
        {
            "bufferView" : 8,
            "componentType" : 5123,
            "count" : 21,
            "type" : "SCALAR"
        },
        {
            "bufferView" : 9,
            "componentType" : 5126,
            "count" : 45,
            "max" : [
                25.951091766357422,
                18.052879333496094,
                8.243200302124023
            ],
            "min" : [
                0,
                -4.500878810882568,
                -0.6776000261306763
            ],
            "type" : "VEC3"
        },
        {
            "bufferView" : 10,
            "componentType" : 5126,
            "count" : 45,
            "type" : "VEC3"
        },
        {
            "bufferView" : 11,
            "componentType" : 5123,
            "count" : 75,
            "type" : "SCALAR"
        },
        {
            "bufferView" : 12,
            "componentType" : 5126,
            "count" : 20,
            "max" : [
                3.6396543979644775,
                14.90719985961914,
                4.743199825286865
            ],
            "min" : [
                0,
                -1.3552000522613525,
                0
            ],
            "type" : "VEC3"
        },
        {
            "bufferView" : 13,
            "componentType" : 5126,
            "count" : 20,
            "type" : "VEC3"
        },
        {
            "bufferView" : 14,
            "componentType" : 5123,
            "count" : 30,
            "type" : "SCALAR"
        },
        {
            "bufferView" : 15,
            "componentType" : 5126,
            "count" : 240,
            "max" : [
                0.2500000298023224,
                0.25,
                0.25
            ],
            "min" : [
                -0.24999995529651642,
                -0.25,
                -0.25
            ],
            "type" : "VEC3"
        },
        {
            "bufferView" : 16,
            "componentType" : 5126,
            "count" : 240,
            "type" : "VEC3"
        },
        {
            "bufferView" : 17,
            "componentType" : 5126,
            "count" : 240,
            "type" : "VEC2"
        },
        {
            "bufferView" : 18,
            "componentType" : 5123,
            "count" : 336,
            "type" : "SCALAR"
        },
        {
            "bufferView" : 19,
            "componentType" : 5126,
            "count" : 240,
            "max" : [
                0.2500000298023224,
                0.25,
                0.25
            ],
            "min" : [
                -0.24999995529651642,
                -0.25,
                -0.25
            ],
            "type" : "VEC3"
        },
        {
            "bufferView" : 20,
            "componentType" : 5126,
            "count" : 240,
            "type" : "VEC3"
        },
        {
            "bufferView" : 21,
            "componentType" : 5126,
            "count" : 240,
            "type" : "VEC2"
        },
        {
            "bufferView" : 22,
            "componentType" : 5123,
            "count" : 336,
            "type" : "SCALAR"
        }
    ],
    "bufferViews" : [
        {
            "buffer" : 0,
            "byteLength" : 120,
            "byteOffset" : 0
        },
        {
            "buffer" : 0,
            "byteLength" : 120,
            "byteOffset" : 120
        },
        {
            "buffer" : 0,
            "byteLength" : 36,
            "byteOffset" : 240
        },
        {
            "buffer" : 0,
            "byteLength" : 192,
            "byteOffset" : 276
        },
        {
            "buffer" : 0,
            "byteLength" : 192,
            "byteOffset" : 468
        },
        {
            "buffer" : 0,
            "byteLength" : 48,
            "byteOffset" : 660
        },
        {
            "buffer" : 0,
            "byteLength" : 156,
            "byteOffset" : 708
        },
        {
            "buffer" : 0,
            "byteLength" : 156,
            "byteOffset" : 864
        },
        {
            "buffer" : 0,
            "byteLength" : 42,
            "byteOffset" : 1020
        },
        {
            "buffer" : 0,
            "byteLength" : 540,
            "byteOffset" : 1064
        },
        {
            "buffer" : 0,
            "byteLength" : 540,
            "byteOffset" : 1604
        },
        {
            "buffer" : 0,
            "byteLength" : 150,
            "byteOffset" : 2144
        },
        {
            "buffer" : 0,
            "byteLength" : 240,
            "byteOffset" : 2296
        },
        {
            "buffer" : 0,
            "byteLength" : 240,
            "byteOffset" : 2536
        },
        {
            "buffer" : 0,
            "byteLength" : 60,
            "byteOffset" : 2776
        },
        {
            "buffer" : 0,
            "byteLength" : 2880,
            "byteOffset" : 2836
        },
        {
            "buffer" : 0,
            "byteLength" : 2880,
            "byteOffset" : 5716
        },
        {
            "buffer" : 0,
            "byteLength" : 1920,
            "byteOffset" : 8596
        },
        {
            "buffer" : 0,
            "byteLength" : 672,
            "byteOffset" : 10516
        },
        {
            "buffer" : 0,
            "byteLength" : 2880,
            "byteOffset" : 11188
        },
        {
            "buffer" : 0,
            "byteLength" : 2880,
            "byteOffset" : 14068
        },
        {
            "buffer" : 0,
            "byteLength" : 1920,
            "byteOffset" : 16948
        },
        {
            "buffer" : 0,
            "byteLength" : 672,
            "byteOffset" : 18868
        }
    ],
    "buffers" : [
        {
            "byteLength" : 19540,
            "uri" : "data:application/octet-stream;base64,"
        }
    ]
}
