{
  "asset": {
    "version": "2.0",
    "generator": "THREE.GLTFExporter"
  },
  "scenes": [
    {
      "name": "AuxScene",
      "nodes": [
        6,
        7,
        8
      ],
      "extras": {
        "max_order": 300,
        "ray_count": 10000
      }
    }
  ],
  "scene": 0,
  "nodes": [
    {
      "name": "Cube001",
      "extras": {
        "id": "E27540D1-42D9-4519-846C-C3CAF59628A9",
        "name": "Cube.001",
        "type": "Mesh",
        "node_type": 1,
        "active": 1
      },
      "mesh": 0
    },
    {
      "name": "Cube002",
      "extras": {
        "id": "0550DFC0-145E-4641-9983-424D32467015",
        "name": "Cube.002",
        "type": "Mesh",
        "node_type": 1,
        "active": 1
      },
      "mesh": 1
    },
    {
      "name": "Cube003",
      "extras": {
        "id": "5794329A-FB44-4C43-A395-E668E9959ADE",
        "name": "Cube.003",
        "type": "Mesh",
        "node_type": 1,
        "active": 1
      },
      "mesh": 2
    },
    {
      "name": "Cube004",
      "extras": {
        "id": "3FA69109-C0CC-47DC-984A-C499267D8ED6",
        "name": "Cube.004",
        "type": "Mesh",
        "node_type": 1,
        "active": 1
      },
      "mesh": 3
    },
    {
      "name": "Cube005",
      "extras": {
        "id": "52061334-DE51-4962-834E-6F772CCA8F03",
        "name": "Cube.005",
        "type": "Mesh",
        "node_type": 1,
        "active": 1
      },
      "mesh": 4
    },
    {
      "name": "Cube006",
      "extras": {
        "id": "6C37E9A7-F081-4F18-BF2C-41A0ABE3C36D",
        "name": "Cube.006",
        "type": "Mesh",
        "node_type": 1,
        "active": 1
      },
      "mesh": 5
    },
    {
      "name": "split-shoebox",
      "extras": {
        "id": "D21BC264-575E-4B45-A6DD-ABF28926BDF3",
        "type": "Group",
        "node_type": 4,
        "active": 1
      },
      "children": [
        0,
        1,
        2,
        3,
        4,
        5
      ]
    },
    {
      "matrix": [
        1,
        0,
        0,
        0,
        0,
        1,
        0,
        0,
        0,
        0,
        1,
        0,
        2.750000000000001,
        2.0599999999999987,
        -3.749999999999999,
        1
      ],
      "name": "New Source",
      "extras": {
        "id": "E303A188-EB65-4F99-B86D-BAED38F01A68",
        "name": "New Source",
        "type": "Source",
        "node_type": 2,
        "active": 1
      },
      "mesh": 6,
      "translation": [
        2.750000000000001,
        2.0599999999999987,
        -3.749999999999999
      ]
    },
    {
      "matrix": [
        0.5799999999999996,
        0,
        0,
        0,
        0,
        0.5799999999999996,
        0,
        0,
        0,
        0,
        0.5799999999999996,
        0,
        9,
        2,
        -7,
        1
      ],
      "name": "New Receiver",
      "extras": {
        "id": "38AD9F4B-3CB5-4AF0-B0C7-0B23DAEE79BE",
        "name": "New Receiver",
        "type": "Receiver",
        "node_type": 3,
        "active": 1,
        "radius": 0.2899999999999998
      },
      "mesh": 7,
      "translation": [
        9,
        2,
        -7
      ]
    }
  ],
  "bufferViews": [
    {
      "buffer": 0,
      "byteOffset": 0,
      "byteLength": 48,
      "target": 34962,
      "byteStride": 12
    },
    {
      "buffer": 0,
      "byteOffset": 48,
      "byteLength": 48,
      "target": 34962,
      "byteStride": 12
    },
    {
      "buffer": 0,
      "byteOffset": 96,
      "byteLength": 32,
      "target": 34962,
      "byteStride": 8
    },
    {
      "buffer": 0,
      "byteOffset": 128,
      "byteLength": 12,
      "target": 34963
    },
    {
      "buffer": 0,
      "byteOffset": 140,
      "byteLength": 48,
      "target": 34962,
      "byteStride": 12
    },
    {
      "buffer": 0,
      "byteOffset": 188,
      "byteLength": 48,
      "target": 34962,
      "byteStride": 12
    },
    {
      "buffer": 0,
      "byteOffset": 236,
      "byteLength": 32,
      "target": 34962,
      "byteStride": 8
    },
    {
      "buffer": 0,
      "byteOffset": 268,
      "byteLength": 12,
      "target": 34963
    },
    {
      "buffer": 0,
      "byteOffset": 280,
      "byteLength": 48,
      "target": 34962,
      "byteStride": 12
    },
    {
      "buffer": 0,
      "byteOffset": 328,
      "byteLength": 48,
      "target": 34962,
      "byteStride": 12
    },
    {
      "buffer": 0,
      "byteOffset": 376,
      "byteLength": 32,
      "target": 34962,
      "byteStride": 8
    },
    {
      "buffer": 0,
      "byteOffset": 408,
      "byteLength": 12,
      "target": 34963
    },
    {
      "buffer": 0,
      "byteOffset": 420,
      "byteLength": 48,
      "target": 34962,
      "byteStride": 12
    },
    {
      "buffer": 0,
      "byteOffset": 468,
      "byteLength": 48,
      "target": 34962,
      "byteStride": 12
    },
    {
      "buffer": 0,
      "byteOffset": 516,
      "byteLength": 32,
      "target": 34962,
      "byteStride": 8
    },
    {
      "buffer": 0,
      "byteOffset": 548,
      "byteLength": 48,
      "target": 34962,
      "byteStride": 12
    },
    {
      "buffer": 0,
      "byteOffset": 596,
      "byteLength": 48,
      "target": 34962,
      "byteStride": 12
    },
    {
      "buffer": 0,
      "byteOffset": 644,
      "byteLength": 32,
      "target": 34962,
      "byteStride": 8
    },
    {
      "buffer": 0,
      "byteOffset": 676,
      "byteLength": 48,
      "target": 34962,
      "byteStride": 12
    },
    {
      "buffer": 0,
      "byteOffset": 724,
      "byteLength": 48,
      "target": 34962,
      "byteStride": 12
    },
    {
      "buffer": 0,
      "byteOffset": 772,
      "byteLength": 32,
      "target": 34962,
      "byteStride": 8
    },
    {
      "buffer": 0,
      "byteOffset": 804,
      "byteLength": 12,
      "target": 34963
    },
    {
      "buffer": 0,
      "byteOffset": 816,
      "byteLength": 3468,
      "target": 34962,
      "byteStride": 12
    },
    {
      "buffer": 0,
      "byteOffset": 4284,
      "byteLength": 3468,
      "target": 34962,
      "byteStride": 12
    },
    {
      "buffer": 0,
      "byteOffset": 7752,
      "byteLength": 2312,
      "target": 34962,
      "byteStride": 8
    },
    {
      "buffer": 0,
      "byteOffset": 10064,
      "byteLength": 2880,
      "target": 34963
    },
    {
      "buffer": 0,
      "byteOffset": 12944,
      "byteLength": 3468,
      "target": 34962,
      "byteStride": 12
    },
    {
      "buffer": 0,
      "byteOffset": 16412,
      "byteLength": 3468,
      "target": 34962,
      "byteStride": 12
    },
    {
      "buffer": 0,
      "byteOffset": 19880,
      "byteLength": 2312,
      "target": 34962,
      "byteStride": 8
    },
    {
      "buffer": 0,
      "byteOffset": 22192,
      "byteLength": 2880,
      "target": 34963
    }
  ],
  "buffers": [
    {
      "byteLength": 25072,
      "uri": "data:application/octet-stream;base64,"
    }
  ],
  "accessors": [
    {
      "bufferView": 0,
      "componentType": 5126,
      "count": 4,
      "max": [
        13.8206148147583,
        3.3633296489715576,
        0
      ],
      "min": [
        0,
        3.3633296489715576,
        -11.726988792419434
      ],
      "type": "VEC3"
    },
    {
      "bufferView": 1,
      "componentType": 5126,
      "count": 4,
      "max": [
        0,
        -1,
        0
      ],
      "min": [
        0,
        -1,
        0
      ],
      "type": "VEC3"
    },
    {
      "bufferView": 2,
      "componentType": 5126,
      "count": 4,
      "max": [
        0.875,
        0.5
      ],
      "min": [
        0.625,
        0.25
      ],
      "type": "VEC2"
    },
    {
      "bufferView": 3,
      "componentType": 5123,
      "count": 6,
      "max": [
        3
      ],
      "min": [
        0
      ],
      "type": "SCALAR"
    },
    {
      "bufferView": 4,
      "componentType": 5126,
      "count": 4,
      "max": [
        13.8206148147583,
        3.3633296489715576,
        0
      ],
      "min": [
        13.8206148147583,
        0,
        -11.726988792419434
      ],
      "type": "VEC3"
    },
    {
      "bufferView": 5,
      "componentType": 5126,
      "count": 4,
      "max": [
        -1,
        0,
        0
      ],
      "min": [
        -1,
        0,
        0
      ],
      "type": "VEC3"
    },
    {
      "bufferView": 6,
      "componentType": 5126,
      "count": 4,
      "max": [
        0.625,
        0.5
      ],
      "min": [
        0.375,
        0.25
      ],
      "type": "VEC2"
    },
    {
      "bufferView": 7,
      "componentType": 5123,
      "count": 6,
      "max": [
        3
      ],
      "min": [
        0
      ],
      "type": "SCALAR"
    },
    {
      "bufferView": 8,
      "componentType": 5126,
      "count": 4,
      "max": [
        13.8206148147583,
        3.3633296489715576,
        -11.726988792419434
      ],
      "min": [
        0,
        0,
        -11.726988792419434
      ],
      "type": "VEC3"
    },
    {
      "bufferView": 9,
      "componentType": 5126,
      "count": 4,
      "max": [
        0,
        0,
        1
      ],
      "min": [
        0,
        0,
        1
      ],
      "type": "VEC3"
    },
    {
      "bufferView": 10,
      "componentType": 5126,
      "count": 4,
      "max": [
        0.625,
        0.75
      ],
      "min": [
        0.375,
        0.5
      ],
      "type": "VEC2"
    },
    {
      "bufferView": 11,
      "componentType": 5123,
      "count": 6,
      "max": [
        3
      ],
      "min": [
        0
      ],
      "type": "SCALAR"
    },
    {
      "bufferView": 12,
      "componentType": 5126,
      "count": 4,
      "max": [
        0,
        3.3633296489715576,
        0
      ],
      "min": [
        0,
        0,
        -11.726988792419434
      ],
      "type": "VEC3"
    },
    {
      "bufferView": 13,
      "componentType": 5126,
      "count": 4,
      "max": [
        1,
        0,
        0
      ],
      "min": [
        1,
        0,
        0
      ],
      "type": "VEC3"
    },
    {
      "bufferView": 14,
      "componentType": 5126,
      "count": 4,
      "max": [
        0.625,
        1
      ],
      "min": [
        0.375,
        0.75
      ],
      "type": "VEC2"
    },
    {
      "bufferView": 15,
      "componentType": 5126,
      "count": 4,
      "max": [
        13.8206148147583,
        3.3633296489715576,
        0
      ],
      "min": [
        0,
        0,
        0
      ],
      "type": "VEC3"
    },
    {
      "bufferView": 16,
      "componentType": 5126,
      "count": 4,
      "max": [
        0,
        0,
        -1
      ],
      "min": [
        0,
        0,
        -1
      ],
      "type": "VEC3"
    },
    {
      "bufferView": 17,
      "componentType": 5126,
      "count": 4,
      "max": [
        0.625,
        0.25
      ],
      "min": [
        0.375,
        0
      ],
      "type": "VEC2"
    },
    {
      "bufferView": 18,
      "componentType": 5126,
      "count": 4,
      "max": [
        13.8206148147583,
        0,
        0
      ],
      "min": [
        0,
        0,
        -11.726988792419434
      ],
      "type": "VEC3"
    },
    {
      "bufferView": 19,
      "componentType": 5126,
      "count": 4,
      "max": [
        0,
        1,
        0
      ],
      "min": [
        0,
        1,
        0
      ],
      "type": "VEC3"
    },
    {
      "bufferView": 20,
      "componentType": 5126,
      "count": 4,
      "max": [
        0.375,
        0.5
      ],
      "min": [
        0.125,
        0.25
      ],
      "type": "VEC2"
    },
    {
      "bufferView": 21,
      "componentType": 5123,
      "count": 6,
      "max": [
        3
      ],
      "min": [
        0
      ],
      "type": "SCALAR"
    },
    {
      "bufferView": 22,
      "componentType": 5126,
      "count": 289,
      "max": [
        0.5,
        0.5,
        0.5
      ],
      "min": [
        -0.5,
        -0.5,
        -0.5
      ],
      "type": "VEC3"
    },
    {
      "bufferView": 23,
      "componentType": 5126,
      "count": 289,
      "max": [
        1,
        1,
        1
      ],
      "min": [
        -1,
        -1,
        -1
      ],
      "type": "VEC3"
    },
    {
      "bufferView": 24,
      "componentType": 5126,
      "count": 289,
      "max": [
        1.03125,
        1
      ],
      "min": [
        -0.03125,
        0
      ],
      "type": "VEC2"
    },
    {
      "bufferView": 25,
      "componentType": 5123,
      "count": 1440,
      "max": [
        288
      ],
      "min": [
        0
      ],
      "type": "SCALAR"
    },
    {
      "bufferView": 26,
      "componentType": 5126,
      "count": 289,
      "max": [
        0.5,
        0.5,
        0.5
      ],
      "min": [
        -0.5,
        -0.5,
        -0.5
      ],
      "type": "VEC3"
    },
    {
      "bufferView": 27,
      "componentType": 5126,
      "count": 289,
      "max": [
        1,
        1,
        1
      ],
      "min": [
        -1,
        -1,
        -1
      ],
      "type": "VEC3"
    },
    {
      "bufferView": 28,
      "componentType": 5126,
      "count": 289,
      "max": [
        1.03125,
        1
      ],
      "min": [
        -0.03125,
        0
      ],
      "type": "VEC2"
    },
    {
      "bufferView": 29,
      "componentType": 5123,
      "count": 1440,
      "max": [
        288
      ],
      "min": [
        0
      ],
      "type": "SCALAR"
    }
  ],
  "materials": [
    {
      "pbrMetallicRoughness": {
        "metallicFactor": 1,
        "roughnessFactor": 1
      },
      "doubleSided": true,
      "name": "Wood Floor",
      "extras": {
        "abs63": 0.06,
        "abs125": 0.15,
        "abs250": 0.11,
        "abs500": 0.1,
        "abs1000": 0.07,
        "abs2000": 0.06,
        "abs4000": 0.07,
        "abs8000": 0.07,
        "abs16000": 0.07
      }
    },
    {
      "pbrMetallicRoughness": {
        "metallicFactor": 1,
        "roughnessFactor": 1
      },
      "doubleSided": true,
      "name": "Plain Steel Ceiling Planks",
      "extras": {
        "abs63": 0.08,
        "abs125": 0.25,
        "abs250": 0.15,
        "abs500": 0.1,
        "abs1000": 0.08,
        "abs2000": 0.05,
        "abs4000": 0.05,
        "abs8000": 0.05,
        "abs16000": 0.05
      }
    },
    {
      "pbrMetallicRoughness": {
        "metallicFactor": 1,
        "roughnessFactor": 1
      },
      "doubleSided": true,
      "name": "Gypsum Board",
      "extras": {
        "abs63": 0.05,
        "abs125": 0.29,
        "abs250": 0.1,
        "abs500": 0.05,
        "abs1000": 0.04,
        "abs2000": 0.07,
        "abs4000": 0.09,
        "abs8000": 0.09,
        "abs16000": 0.09
      }
    },
    {
      "pbrMetallicRoughness": {
        "metallicFactor": 1,
        "roughnessFactor": 1
      },
      "doubleSided": true,
      "name": "Gypsum Board",
      "extras": {
        "abs63": 0.05,
        "abs125": 0.29,
        "abs250": 0.1,
        "abs500": 0.05,
        "abs1000": 0.04,
        "abs2000": 0.07,
        "abs4000": 0.09,
        "abs8000": 0.09,
        "abs16000": 0.09
      }
    },
    {
      "pbrMetallicRoughness": {
        "metallicFactor": 1,
        "roughnessFactor": 1
      },
      "doubleSided": true,
      "name": "Gypsum Board",
      "extras": {
        "abs63": 0.05,
        "abs125": 0.29,
        "abs250": 0.1,
        "abs500": 0.05,
        "abs1000": 0.04,
        "abs2000": 0.07,
        "abs4000": 0.09,
        "abs8000": 0.09,
        "abs16000": 0.09
      }
    },
    {
      "pbrMetallicRoughness": {
        "metallicFactor": 1,
        "roughnessFactor": 1
      },
      "doubleSided": true,
      "name": "Glass",
      "extras": {
        "abs63": 0.03,
        "abs125": 0.1,
        "abs250": 0.05,
        "abs500": 0.04,
        "abs1000": 0.03,
        "abs2000": 0.03,
        "abs4000": 0.03,
        "abs8000": 0.03,
        "abs16000": 0.03
      }
    },
    {
      "pbrMetallicRoughness": {
        "baseColorFactor": [
          0.26666666666666666,
          0.6352941176470588,
          0.45098039215686275,
          1
        ],
        "metallicFactor": 0.5,
        "roughnessFactor": 0.5
      }
    },
    {
      "pbrMetallicRoughness": {
        "baseColorFactor": [
          0.8980392156862745,
          0.45098039215686275,
          0.16470588235294117,
          1
        ],
        "metallicFactor": 0.5,
        "roughnessFactor": 0.5
      }
    }
  ],
  "meshes": [
    {
      "primitives": [
        {
          "mode": 4,
          "attributes": {
            "POSITION": 0,
            "NORMAL": 1,
            "TEXCOORD_0": 2
          },
          "indices": 3,
          "material": 0
        }
      ],
      "name": "vPh70oCB3I"
    },
    {
      "primitives": [
        {
          "mode": 4,
          "attributes": {
            "POSITION": 4,
            "NORMAL": 5,
            "TEXCOORD_0": 6
          },
          "indices": 7,
          "material": 1
        }
      ],
      "name": "hYuJksY3MQ"
    },
    {
      "primitives": [
        {
          "mode": 4,
          "attributes": {
            "POSITION": 8,
            "NORMAL": 9,
            "TEXCOORD_0": 10
          },
          "indices": 11,
          "material": 2
        }
      ],
      "name": "pKtsO-gS2K"
    },
    {
      "primitives": [
        {
          "mode": 4,
          "attributes": {
            "POSITION": 12,
            "NORMAL": 13,
            "TEXCOORD_0": 14
          },
          "indices": 11,
          "material": 3
        }
      ],
      "name": "leFgR295ZM"
    },
    {
      "primitives": [
        {
          "mode": 4,
          "attributes": {
            "POSITION": 15,
            "NORMAL": 16,
            "TEXCOORD_0": 17
          },
          "indices": 7,
          "material": 4
        }
      ],
      "name": "n5G0vg_O5c"
    },
    {
      "primitives": [
        {
          "mode": 4,
          "attributes": {
            "POSITION": 18,
            "NORMAL": 19,
            "TEXCOORD_0": 20
          },
          "indices": 21,
          "material": 5
        }
      ],
      "name": "q00bksPYej"
    },
    {
      "primitives": [
        {
          "mode": 4,
          "attributes": {
            "POSITION": 22,
            "NORMAL": 23,
            "TEXCOORD_0": 24
          },
          "indices": 25,
          "material": 6
        }
      ],
      "name": "Vw4HhgMivP"
    },
    {
      "primitives": [
        {
          "mode": 4,
          "attributes": {
            "POSITION": 26,
            "NORMAL": 27,
            "TEXCOORD_0": 28
          },
          "indices": 29,
          "material": 7
        }
      ],
      "name": "2w0BYoVx4O"
    }
  ]
}