{
    "asset" : {
        "generator" : "Khronos glTF Blender I/O v1.6.16",
        "version" : "2.0"
    },
    "scene" : 0,
    "scenes" : [
        {
            "extras" : {
                "max_order" : 100,
                "ray_count" : 10000,
                "export_path" : "/Users/gregzanchelli/dev/raya/bench/garage/raya/garage.gltf",
                "glTF2ExportSettings" : {
                    "export_all_influences" : 0,
                    "export_animations" : 0,
                    "export_apply" : 1,
                    "export_cameras" : 0,
                    "export_colors" : 1,
                    "export_copyright" : "",
                    "export_current_frame" : 0,
                    "export_def_bones" : 0,
                    "export_displacement" : 0,
                    "export_draco_color_quantization" : 10,
                    "export_draco_generic_quantization" : 12,
                    "export_draco_mesh_compression_enable" : 0,
                    "export_draco_mesh_compression_level" : 6,
                    "export_draco_normal_quantization" : 10,
                    "export_draco_position_quantization" : 14,
                    "export_draco_texcoord_quantization" : 12,
                    "export_extras" : 1,
                    "export_force_sampling" : 1,
                    "export_format" : "GLTF_EMBEDDED",
                    "export_frame_range" : 1,
                    "export_frame_step" : 1,
                    "export_image_format" : "AUTO",
                    "export_lights" : 0,
                    "export_materials" : "EXPORT",
                    "export_morph" : 0,
                    "export_morph_normal" : 1,
                    "export_morph_tangent" : 0,
                    "export_nla_strips" : 1,
                    "export_normals" : 1,
                    "export_selected" : 0,
                    "export_skins" : 0,
                    "export_tangents" : 0,
                    "export_texcoords" : 1,
                    "export_texture_dir" : "",
                    "export_yup" : 0,
                    "use_active_collection" : 0,
                    "use_mesh_edges" : 0,
                    "use_mesh_vertices" : 0,
                    "use_renderable" : 0,
                    "use_selection" : 0,
                    "use_visible" : 0
                }
            },
            "name" : "Scene",
            "nodes" : [
                0,
                1,
                2,
                3
            ]
        }
    ],
    "nodes" : [
        {
            "extras" : {
                "active" : 1,
                "node_type" : 1
            },
            "mesh" : 0,
            "name" : "Garage"
        },
        {
            "extras" : {
                "node_type" : 2,
                "active" : 1
            },
            "mesh" : 1,
            "name" : "Source",
            "translation" : [
                7,
                24,
                0
            ]
        },
        {
            "extras" : {
                "node_type" : 3,
                "radius" : 0.25,
                "active" : 1
            },
            "mesh" : 2,
            "name" : "Receiver",
            "translation" : [
                0,
                -23,
                0
            ]
        },
        {
            "extras" : {
                "active" : 0,
                "node_type" : 1
            },
            "mesh" : 3,
            "name" : "Cube"
        }
    ],
    "materials" : [
        {
            "doubleSided" : true,
            "extras" : {
                "abs63" : 0.009999999776482582,
                "abs125" : 0.009999999776482582,
                "abs250" : 0.009999999776482582,
                "abs500" : 0.009999999776482582,
                "abs1000" : 0.019999999552965164,
                "abs2000" : 0.019999999552965164,
                "abs4000" : 0.019999999552965164,
                "abs8000" : 0.019999999552965164,
                "abs16000" : 0.019999999552965164
            },
            "name" : "UnpaintedConcrete",
            "pbrMetallicRoughness" : {
                "baseColorFactor" : [
                    0.800000011920929,
                    0.800000011920929,
                    0.800000011920929,
                    1
                ],
                "metallicFactor" : 0,
                "roughnessFactor" : 0.5
            }
        },
        {
            "doubleSided" : true,
            "extras" : {
                "abs63" : 0.004000000189989805,
                "abs125" : 0.009999999776482582,
                "abs250" : 0.019999999552965164,
                "abs500" : 0.03999999910593033,
                "abs1000" : 0.05999999865889549,
                "abs2000" : 0.07999999821186066,
                "abs4000" : 0.10000000149011612,
                "abs8000" : 0.10000000149011612,
                "abs16000" : 0.10000000149011612
            },
            "name" : "ConcreteRough",
            "pbrMetallicRoughness" : {
                "baseColorFactor" : [
                    0.800000011920929,
                    0.800000011920929,
                    0.800000011920929,
                    1
                ],
                "metallicFactor" : 0,
                "roughnessFactor" : 0.5
            }
        },
        {
            "doubleSided" : true,
            "extras" : {
                "abs63" : 0.029999999329447746,
                "abs125" : 0.10000000149011612,
                "abs250" : 0.05000000074505806,
                "abs500" : 0.05999999865889549,
                "abs1000" : 0.07000000029802322,
                "abs2000" : 0.09000000357627869,
                "abs4000" : 0.07999999821186066,
                "abs8000" : 0.07999999821186066,
                "abs16000" : 0.07000000029802322
            },
            "name" : "PaintedConcrete",
            "pbrMetallicRoughness" : {
                "baseColorFactor" : [
                    0.800000011920929,
                    0.800000011920929,
                    0.800000011920929,
                    1
                ],
                "metallicFactor" : 0,
                "roughnessFactor" : 0.5
            }
        }
    ],
    "meshes" : [
        {
            "name" : "Cube.001",
            "primitives" : [
                {
                    "attributes" : {
                        "POSITION" : 0,
                        "NORMAL" : 1,
                        "TEXCOORD_0" : 2
                    },
                    "indices" : 3,
                    "material" : 0
                },
                {
                    "attributes" : {
                        "POSITION" : 4,
                        "NORMAL" : 5,
                        "TEXCOORD_0" : 6
                    },
                    "indices" : 7,
                    "material" : 1
                },
                {
                    "attributes" : {
                        "POSITION" : 8,
                        "NORMAL" : 9,
                        "TEXCOORD_0" : 10
                    },
                    "indices" : 11,
                    "material" : 2
                }
            ]
        },
        {
            "name" : "Sphere",
            "primitives" : [
                {
                    "attributes" : {
                        "POSITION" : 12,
                        "NORMAL" : 13,
                        "TEXCOORD_0" : 14
                    },
                    "indices" : 15
                }
            ]
        },
        {
            "name" : "Sphere.001",
            "primitives" : [
                {
                    "attributes" : {
                        "POSITION" : 16,
                        "NORMAL" : 17,
                        "TEXCOORD_0" : 18
                    },
                    "indices" : 15
                }
            ]
        },
        {
            "name" : "Cube",
            "primitives" : [
                {
                    "attributes" : {
                        "POSITION" : 19,
                        "NORMAL" : 20,
                        "TEXCOORD_0" : 21
                    },
                    "indices" : 22,
                    "material" : 2
                },
                {
                    "attributes" : {
                        "POSITION" : 23,
                        "NORMAL" : 24,
                        "TEXCOORD_0" : 25
                    },
                    "indices" : 26,
                    "material" : 0
                },
                {
                    "attributes" : {
                        "POSITION" : 27,
                        "NORMAL" : 28,
                        "TEXCOORD_0" : 29
                    },
                    "indices" : 30,
                    "material" : 1
                }
            ]
        }
    ],
    "accessors" : [
        {
            "bufferView" : 0,
            "componentType" : 5126,
            "count" : 481,
            "max" : [
                17.5,
                27.499998092651367,
                2.5
            ],
            "min" : [
                -17.5,
                -27.499998092651367,
                -2.5
            ],
            "type" : "VEC3"
        },
        {
            "bufferView" : 1,
            "componentType" : 5126,
            "count" : 481,
            "type" : "VEC3"
        },
        {
            "bufferView" : 2,
            "componentType" : 5126,
            "count" : 481,
            "type" : "VEC2"
        },
        {
            "bufferView" : 3,
            "componentType" : 5123,
            "count" : 1365,
            "type" : "SCALAR"
        },
        {
            "bufferView" : 4,
            "componentType" : 5126,
            "count" : 434,
            "max" : [
                17.5,
                27.499998092651367,
                2.5
            ],
            "min" : [
                -17.5,
                -27.499998092651367,
                1.542370319366455
            ],
            "type" : "VEC3"
        },
        {
            "bufferView" : 5,
            "componentType" : 5126,
            "count" : 434,
            "type" : "VEC3"
        },
        {
            "bufferView" : 6,
            "componentType" : 5126,
            "count" : 434,
            "type" : "VEC2"
        },
        {
            "bufferView" : 7,
            "componentType" : 5123,
            "count" : 1176,
            "type" : "SCALAR"
        },
        {
            "bufferView" : 8,
            "componentType" : 5126,
            "count" : 1395,
            "max" : [
                17.5,
                18.5,
                1.542370319366455
            ],
            "min" : [
                -17.5,
                -18.5,
                -2.5
            ],
            "type" : "VEC3"
        },
        {
            "bufferView" : 9,
            "componentType" : 5126,
            "count" : 1395,
            "type" : "VEC3"
        },
        {
            "bufferView" : 10,
            "componentType" : 5126,
            "count" : 1395,
            "type" : "VEC2"
        },
        {
            "bufferView" : 11,
            "componentType" : 5123,
            "count" : 2121,
            "type" : "SCALAR"
        },
        {
            "bufferView" : 12,
            "componentType" : 5126,
            "count" : 240,
            "max" : [
                0.5000000596046448,
                0.5,
                0.5
            ],
            "min" : [
                -0.49999991059303284,
                -0.5,
                -0.5
            ],
            "type" : "VEC3"
        },
        {
            "bufferView" : 13,
            "componentType" : 5126,
            "count" : 240,
            "type" : "VEC3"
        },
        {
            "bufferView" : 14,
            "componentType" : 5126,
            "count" : 240,
            "type" : "VEC2"
        },
        {
            "bufferView" : 15,
            "componentType" : 5123,
            "count" : 336,
            "type" : "SCALAR"
        },
        {
            "bufferView" : 16,
            "componentType" : 5126,
            "count" : 240,
            "max" : [
                0.2500000298023224,
                0.25,
                0.25
            ],
            "min" : [
                -0.24999995529651642,
                -0.25,
                -0.25
            ],
            "type" : "VEC3"
        },
        {
            "bufferView" : 17,
            "componentType" : 5126,
            "count" : 240,
            "type" : "VEC3"
        },
        {
            "bufferView" : 18,
            "componentType" : 5126,
            "count" : 240,
            "type" : "VEC2"
        },
        {
            "bufferView" : 19,
            "componentType" : 5126,
            "count" : 16,
            "max" : [
                17.5,
                27.5,
                2.5
            ],
            "min" : [
                -17.5,
                -27.5,
                -2.5
            ],
            "type" : "VEC3"
        },
        {
            "bufferView" : 20,
            "componentType" : 5126,
            "count" : 16,
            "type" : "VEC3"
        },
        {
            "bufferView" : 21,
            "componentType" : 5126,
            "count" : 16,
            "type" : "VEC2"
        },
        {
            "bufferView" : 22,
            "componentType" : 5123,
            "count" : 24,
            "type" : "SCALAR"
        },
        {
            "bufferView" : 23,
            "componentType" : 5126,
            "count" : 4,
            "max" : [
                17.5,
                27.5,
                -2.5
            ],
            "min" : [
                -17.5,
                -27.5,
                -2.5
            ],
            "type" : "VEC3"
        },
        {
            "bufferView" : 24,
            "componentType" : 5126,
            "count" : 4,
            "type" : "VEC3"
        },
        {
            "bufferView" : 25,
            "componentType" : 5126,
            "count" : 4,
            "type" : "VEC2"
        },
        {
            "bufferView" : 26,
            "componentType" : 5123,
            "count" : 6,
            "type" : "SCALAR"
        },
        {
            "bufferView" : 27,
            "componentType" : 5126,
            "count" : 4,
            "max" : [
                17.5,
                27.5,
                2.5
            ],
            "min" : [
                -17.5,
                -27.5,
                2.5
            ],
            "type" : "VEC3"
        },
        {
            "bufferView" : 28,
            "componentType" : 5126,
            "count" : 4,
            "type" : "VEC3"
        },
        {
            "bufferView" : 29,
            "componentType" : 5126,
            "count" : 4,
            "type" : "VEC2"
        },
        {
            "bufferView" : 30,
            "componentType" : 5123,
            "count" : 6,
            "type" : "SCALAR"
        }
    ],
    "bufferViews" : [
        {
            "buffer" : 0,
            "byteLength" : 5772,
            "byteOffset" : 0
        },
        {
            "buffer" : 0,
            "byteLength" : 5772,
            "byteOffset" : 5772
        },
        {
            "buffer" : 0,
            "byteLength" : 3848,
            "byteOffset" : 11544
        },
        {
            "buffer" : 0,
            "byteLength" : 2730,
            "byteOffset" : 15392
        },
        {
            "buffer" : 0,
            "byteLength" : 5208,
            "byteOffset" : 18124
        },
        {
            "buffer" : 0,
            "byteLength" : 5208,
            "byteOffset" : 23332
        },
        {
            "buffer" : 0,
            "byteLength" : 3472,
            "byteOffset" : 28540
        },
        {
            "buffer" : 0,
            "byteLength" : 2352,
            "byteOffset" : 32012
        },
        {
            "buffer" : 0,
            "byteLength" : 16740,
            "byteOffset" : 34364
        },
        {
            "buffer" : 0,
            "byteLength" : 16740,
            "byteOffset" : 51104
        },
        {
            "buffer" : 0,
            "byteLength" : 11160,
            "byteOffset" : 67844
        },
        {
            "buffer" : 0,
            "byteLength" : 4242,
            "byteOffset" : 79004
        },
        {
            "buffer" : 0,
            "byteLength" : 2880,
            "byteOffset" : 83248
        },
        {
            "buffer" : 0,
            "byteLength" : 2880,
            "byteOffset" : 86128
        },
        {
            "buffer" : 0,
            "byteLength" : 1920,
            "byteOffset" : 89008
        },
        {
            "buffer" : 0,
            "byteLength" : 672,
            "byteOffset" : 90928
        },
        {
            "buffer" : 0,
            "byteLength" : 2880,
            "byteOffset" : 91600
        },
        {
            "buffer" : 0,
            "byteLength" : 2880,
            "byteOffset" : 94480
        },
        {
            "buffer" : 0,
            "byteLength" : 1920,
            "byteOffset" : 97360
        },
        {
            "buffer" : 0,
            "byteLength" : 192,
            "byteOffset" : 99280
        },
        {
            "buffer" : 0,
            "byteLength" : 192,
            "byteOffset" : 99472
        },
        {
            "buffer" : 0,
            "byteLength" : 128,
            "byteOffset" : 99664
        },
        {
            "buffer" : 0,
            "byteLength" : 48,
            "byteOffset" : 99792
        },
        {
            "buffer" : 0,
            "byteLength" : 48,
            "byteOffset" : 99840
        },
        {
            "buffer" : 0,
            "byteLength" : 48,
            "byteOffset" : 99888
        },
        {
            "buffer" : 0,
            "byteLength" : 32,
            "byteOffset" : 99936
        },
        {
            "buffer" : 0,
            "byteLength" : 12,
            "byteOffset" : 99968
        },
        {
            "buffer" : 0,
            "byteLength" : 48,
            "byteOffset" : 99980
        },
        {
            "buffer" : 0,
            "byteLength" : 48,
            "byteOffset" : 100028
        },
        {
            "buffer" : 0,
            "byteLength" : 32,
            "byteOffset" : 100076
        },
        {
            "buffer" : 0,
            "byteLength" : 12,
            "byteOffset" : 100108
        }
    ],
    "buffers" : [
        {
            "byteLength" : 100120,
            "uri" : "data:application/octet-stream;base64,"
        }
    ]
}
